<svg width="34" height="31" viewBox="0 0 34 31" fill="none" xmlns="http://www.w3.org/2000/svg">
<g clip-path="url(#clip0_4_448)">
<path fill-rule="evenodd" clip-rule="evenodd" d="M8.42957 6.214L11.5266 21.78L28.3366 20.791L31.7276 6.034H20.0506L8.42957 6.214ZM11.0356 23.017C10.7506 23.017 10.5006 22.815 10.4446 22.531L7.13857 5.911L4.56957 3.207H0.603573C0.270573 3.207 -0.000427246 2.937 -0.000427246 2.604C-0.000427246 2.27 0.270573 2 0.603573 2H4.82857C4.99457 2 5.15257 2.068 5.26657 2.188L7.95157 5.014L20.0416 4.827H32.4856C32.6696 4.827 32.8436 4.911 32.9576 5.055C33.0726 5.199 33.1156 5.387 33.0736 5.566L29.4116 21.502C29.3516 21.763 29.1266 21.954 28.8596 21.969L11.0726 23.016C11.0606 23.017 11.0486 23.017 11.0356 23.017Z" fill="#231F20"/>
<path fill-rule="evenodd" clip-rule="evenodd" d="M29.4276 25.4716H11.1166C10.7836 25.4716 10.5126 25.2006 10.5126 24.8676V22.4126C10.5126 22.0796 10.7836 21.8096 11.1166 21.8096C11.4496 21.8096 11.7206 22.0796 11.7206 22.4126V24.2636H29.4276C29.7606 24.2636 30.0316 24.5346 30.0316 24.8676C30.0316 25.2006 29.7606 25.4716 29.4276 25.4716Z" fill="#231F20"/>
<path fill-rule="evenodd" clip-rule="evenodd" d="M14.4169 28.2778C14.4169 29.5778 13.3629 30.6318 12.0629 30.6318C10.7629 30.6318 9.70886 29.5778 9.70886 28.2778C9.70886 26.9778 10.7629 25.9238 12.0629 25.9238C13.3629 25.9238 14.4169 26.9778 14.4169 28.2778Z" fill="#231F20"/>
<path fill-rule="evenodd" clip-rule="evenodd" d="M30.2723 28.2778C30.2723 29.5778 29.2183 30.6318 27.9183 30.6318C26.6183 30.6318 25.5643 29.5778 25.5643 28.2778C25.5643 26.9778 26.6183 25.9238 27.9183 25.9238C29.2183 25.9238 30.2723 26.9778 30.2723 28.2778Z" fill="#231F20"/>
</g>
<defs>
<clipPath id="clip0_4_448">
<rect width="34" height="31" fill="white"/>
</clipPath>
</defs>
</svg>
