<svg width="25" height="25" viewBox="0 0 25 25" fill="none" xmlns="http://www.w3.org/2000/svg">
<path d="M12.6051 12.0448C9.46073 12.0448 6.91174 9.49586 6.91174 6.35152C6.91174 3.20719 9.46073 0.658203 12.6051 0.658203C15.7494 0.658203 18.2984 3.20719 18.2984 6.35152C18.2984 7.86149 17.6986 9.3096 16.6308 10.3773C15.5631 11.445 14.115 12.0448 12.6051 12.0448ZM12.6051 1.92339C10.1595 1.92339 8.17693 3.90593 8.17693 6.35152C8.17693 8.79712 10.1595 10.7797 12.6051 10.7797C15.0507 10.7797 17.0332 8.79712 17.0332 6.35152C17.0416 5.17164 16.5788 4.03718 15.7475 3.19989C14.9161 2.3626 13.785 1.89176 12.6051 1.89176V1.92339Z" fill="#212A2F"/>
<path d="M20.367 24.3743H4.84319C4.33028 24.3788 3.83907 24.1676 3.48945 23.7923C3.19611 23.4761 3.04721 23.0523 3.07826 22.622C3.59066 17.0299 7.68352 12.8105 12.6051 12.8105C17.5266 12.8105 21.6195 16.9983 22.1319 22.622C22.172 23.0629 22.0225 23.5 21.7207 23.824C21.3656 24.1876 20.8751 24.387 20.367 24.3743ZM12.6051 14.0441C8.34142 14.0441 4.78626 17.7701 4.33712 22.7043C4.33162 22.7914 4.36389 22.8767 4.42568 22.9383C4.53496 23.051 4.6863 23.1129 4.84319 23.1091H20.367C20.5239 23.1129 20.6752 23.051 20.7845 22.9383C20.8463 22.8767 20.8785 22.7914 20.873 22.7043C20.4239 17.7701 16.8687 14.0441 12.6051 14.0441Z" fill="#212A2F"/>
</svg>
