<svg aria-hidden="true" style="position: absolute; width: 0; height: 0; overflow: hidden;" version="1.1" xmlns="http://www.w3.org/2000/svg" xmlns:xlink="http://www.w3.org/1999/xlink">
<defs>
<symbol id="icon-footer-1" viewBox="0 0 54 32">
<path d="M0 0h53.818v32h-53.818v-32z"></path>
</symbol>
<symbol id="icon-footer-2" viewBox="0 0 54 32">
<path d="M0 0h53.818v32h-53.818v-32z"></path>
</symbol>
<symbol id="icon-collection-left" viewBox="0 0 19 32">
<path fill="#4d5559" style="fill: var(--color1, #4d5559)" d="M18.968 3.476l-16.431 14.208-2.512-2.905 16.431-14.208 2.512 2.905z"></path>
<path fill="#4d5559" style="fill: var(--color1, #4d5559)" d="M17.134 28.753l-2.905 2.512-14.208-16.432 2.905-2.512 14.208 16.432z"></path>
</symbol>
<symbol id="icon-collection-rigth" viewBox="0 0 19 32">
<path fill="#4d5559" style="fill: var(--color1, #4d5559)" d="M0.232 28.524l16.431-14.208 2.512 2.905-16.431 14.208-2.512-2.905z"></path>
<path fill="#4d5559" style="fill: var(--color1, #4d5559)" d="M2.066 3.248l2.905-2.512 14.208 16.432-2.905 2.512-14.208-16.432z"></path>
</symbol>
<symbol id="icon-cart" viewBox="0 0 35 32">
<path d="M8.701 6.414l3.197 16.068 17.352-1.021 3.5-15.233h-12.054l-11.996 0.186zM11.392 23.759c-0.294 0-0.552-0.209-0.61-0.502l-3.413-17.156-2.652-2.791h-4.094c-0.344 0-0.623-0.279-0.623-0.622 0-0.345 0.28-0.623 0.623-0.623h4.361c0.171 0 0.334 0.070 0.452 0.194l2.772 2.917 12.48-0.193h12.845c0.19 0 0.37 0.087 0.487 0.235 0.119 0.149 0.163 0.343 0.12 0.527l-3.78 16.45c-0.062 0.269-0.294 0.467-0.57 0.482l-18.361 1.081c-0.012 0.001-0.025 0.001-0.038 0.001z"></path>
<path d="M30.377 26.293h-18.902c-0.344 0-0.623-0.28-0.623-0.623v-2.534c0-0.344 0.28-0.622 0.623-0.622s0.623 0.279 0.623 0.622v1.911h18.278c0.344 0 0.623 0.28 0.623 0.623s-0.28 0.623-0.623 0.623z"></path>
<path d="M14.882 29.19c0 1.342-1.088 2.43-2.43 2.43s-2.43-1.088-2.43-2.43c0-1.342 1.088-2.43 2.43-2.43s2.43 1.088 2.43 2.43z"></path>
<path d="M31.249 29.19c0 1.342-1.088 2.43-2.43 2.43s-2.43-1.088-2.43-2.43c0-1.342 1.088-2.43 2.43-2.43s2.43 1.088 2.43 2.43z"></path>
</symbol>
<symbol id="icon-account" viewBox="0 0 32 32">
<path d="M16.135 15.417c-4.025 0-7.287-3.263-7.287-7.287s3.263-7.287 7.287-7.287c4.025 0 7.287 3.263 7.287 7.287 0 1.933-0.768 3.786-2.135 5.153s-3.22 2.134-5.153 2.134zM16.135 2.462c-3.13 0-5.668 2.538-5.668 5.668s2.538 5.668 5.668 5.668c3.13 0 5.668-2.538 5.668-5.668 0.011-1.51-0.582-2.962-1.646-4.034s-2.512-1.674-4.022-1.674v0.041z"></path>
<path d="M26.070 31.199h-19.87c-0.657 0.006-1.285-0.265-1.733-0.745-0.375-0.405-0.566-0.947-0.526-1.498 0.656-7.158 5.895-12.559 12.194-12.559s11.538 5.36 12.194 12.559c0.051 0.564-0.14 1.124-0.526 1.539-0.455 0.465-1.082 0.721-1.733 0.704zM16.135 17.976c-5.457 0-10.008 4.769-10.583 11.085-0.007 0.111 0.034 0.221 0.113 0.3 0.14 0.144 0.334 0.224 0.534 0.219h19.87c0.201 0.005 0.395-0.074 0.534-0.219 0.079-0.079 0.12-0.188 0.113-0.3-0.575-6.316-5.125-11.085-10.583-11.085z"></path>
</symbol>
<symbol id="icon-qua" viewBox="0 0 32 32">
<path d="M16.050 30.947c-8.446 0-15.293-6.836-15.293-15.27s6.847-15.27 15.293-15.27c8.446 0 15.293 6.836 15.293 15.27-0.014 8.427-6.852 15.256-15.293 15.27zM16.050 2.148c-7.483 0-13.549 6.057-13.549 13.529s6.066 13.529 13.549 13.529 13.549-6.057 13.549-13.529c-0.009-7.468-6.070-13.52-13.549-13.529z"></path>
<path d="M16.227 21.623c0.539-0.003 1.027 0.318 1.235 0.814s0.097 1.069-0.283 1.451c-0.38 0.382-0.953 0.497-1.451 0.292s-0.823-0.69-0.823-1.228c0.004-0.729 0.592-1.319 1.322-1.328z"></path>
<path d="M17.078 19.848v-0.891c-0.008-0.363 0.049-0.725 0.168-1.068 0.109-0.293 0.256-0.57 0.438-0.824 0.19-0.271 0.404-0.524 0.64-0.757 0.236-0.244 0.48-0.471 0.724-0.706s0.488-0.496 0.724-0.757c0.24-0.257 0.451-0.539 0.632-0.841 0.438-0.7 0.664-1.512 0.648-2.338 0.012-0.667-0.108-1.33-0.354-1.951-0.223-0.543-0.562-1.031-0.994-1.429-0.445-0.4-0.966-0.707-1.533-0.9-0.632-0.211-1.295-0.316-1.962-0.311-0.739-0.009-1.472 0.131-2.156 0.412-0.627 0.263-1.188 0.662-1.642 1.169-0.454 0.512-0.8 1.11-1.019 1.757-0.247 0.699-0.361 1.437-0.337 2.178 0 0.539 0.437 0.975 0.977 0.975s0.977-0.437 0.977-0.975c-0.006-0.502 0.056-1.003 0.185-1.488 0.109-0.434 0.307-0.841 0.581-1.194 0.269-0.35 0.611-0.637 1.002-0.841 0.446-0.205 0.933-0.306 1.423-0.294 0.723-0.038 1.43 0.217 1.962 0.706 0.52 0.529 0.821 1.235 0.842 1.976 0.036 0.491-0.033 0.984-0.202 1.446-0.168 0.395-0.399 0.761-0.682 1.085-0.286 0.332-0.593 0.647-0.918 0.942-0.333 0.306-0.648 0.632-0.943 0.975-0.303 0.367-0.557 0.771-0.758 1.202-0.218 0.52-0.335 1.076-0.345 1.64v1.093c0 0.539 0.437 0.975 0.977 0.975s0.977-0.437 0.977-0.975z"></path>
</symbol>
</defs>
</svg>
