<svg width="25" height="25" viewBox="0 0 25 25" fill="none" xmlns="http://www.w3.org/2000/svg">
<g clip-path="url(#clip0_4_13)">
<path d="M12.5394 24.1772C5.94106 24.1772 0.592041 18.8362 0.592041 12.2478C0.592041 5.65935 5.94106 0.318359 12.5394 0.318359C19.1378 0.318359 24.4868 5.65935 24.4868 12.2478C24.4759 18.8317 19.1333 24.1664 12.5394 24.1772ZM12.5394 1.67816C6.69318 1.67816 1.95388 6.41034 1.95388 12.2478C1.95388 18.0852 6.69318 22.8174 12.5394 22.8174C18.3856 22.8174 23.1249 18.0852 23.1249 12.2478C23.1177 6.41334 18.3826 1.6854 12.5394 1.67816Z" fill="#212A2F"/>
<path fill-rule="evenodd" clip-rule="evenodd" d="M12.6775 16.8926C13.0986 16.8899 13.4796 17.1411 13.6426 17.5287C13.8055 17.9164 13.7182 18.3639 13.4215 18.6621C13.1247 18.9603 12.6771 19.0503 12.2879 18.89C11.8986 18.7298 11.6447 18.3509 11.6447 17.9305C11.6482 17.3613 12.1075 16.8997 12.6775 16.8926Z" fill="#212A2F"/>
<path fill-rule="evenodd" clip-rule="evenodd" d="M13.3421 15.5061V14.8097C13.336 14.5261 13.3806 14.2436 13.4737 13.9755C13.559 13.7468 13.674 13.5304 13.8158 13.3317C13.9641 13.1199 14.1315 12.922 14.3158 12.7405C14.5 12.55 14.6908 12.3726 14.8816 12.1887C15.0724 12.0047 15.2631 11.8011 15.4474 11.5975C15.6347 11.3966 15.8001 11.1764 15.9408 10.9406C16.2832 10.3936 16.4592 9.75922 16.4474 9.11435C16.4571 8.5931 16.3632 8.07509 16.171 7.59033C15.9965 7.16625 15.7316 6.78519 15.3947 6.47359C15.0474 6.16075 14.64 5.92162 14.1974 5.7707C13.7034 5.60561 13.1854 5.52347 12.6645 5.52764C12.0871 5.52084 11.5143 5.63031 10.9802 5.84953C10.4901 6.05516 10.0519 6.36706 9.69736 6.76263C9.34302 7.16273 9.07237 7.62952 8.9013 8.13556C8.70831 8.6814 8.61906 9.25841 8.63814 9.83695C8.63814 10.2578 8.97982 10.599 9.4013 10.599C9.82278 10.599 10.1645 10.2578 10.1645 9.83695C10.1598 9.44462 10.2085 9.05348 10.3092 8.67423C10.3942 8.33525 10.5488 8.0176 10.7631 7.74142C10.9731 7.46814 11.2403 7.24394 11.546 7.08451C11.8943 6.92441 12.2746 6.84577 12.6579 6.85459C13.2224 6.82487 13.7751 7.02382 14.1908 7.4064C14.597 7.81986 14.8319 8.37118 14.8487 8.95013C14.877 9.33368 14.8232 9.71886 14.6908 10.08C14.5592 10.3888 14.3793 10.6749 14.1579 10.9274C13.9341 11.187 13.6946 11.4327 13.4408 11.6632C13.1804 11.9025 12.9344 12.1569 12.7039 12.4252C12.4675 12.712 12.2685 13.0276 12.1118 13.3645C11.9416 13.7707 11.8501 14.2053 11.8421 14.6455V15.4995C11.8421 15.9203 12.1838 16.2615 12.6052 16.2615C13.0267 16.2615 13.3684 15.9203 13.3684 15.4995" fill="#212A2F"/>
</g>
<defs>
<clipPath id="clip0_4_13">
<rect width="25" height="25" fill="white"/>
</clipPath>
</defs>
</svg>
